<svg width="39" height="39" viewBox="0 0 39 39" fill="none" xmlns="http://www.w3.org/2000/svg">
<g clip-path="url(#clip0_1_1314)">
<path d="M19.4998 39C30.2692 39 38.9995 30.2697 38.9995 19.5003C38.9995 8.73083 30.2692 0.000488281 19.4998 0.000488281C8.73035 0.000488281 0 8.73083 0 19.5003C0 30.2697 8.73035 39 19.4998 39Z" fill="#41B4E6"/>
<path d="M38.9998 19.5001C38.9998 19.025 38.9819 18.5542 38.9485 18.0875L30.8668 10.0059L8.13281 18.9484L16.831 27.6466L16.9451 28.0573L17.0928 27.9084L17.0934 27.909L16.9451 28.0573L26.5669 37.6791C33.8428 34.8485 38.9998 27.777 38.9998 19.5001Z" fill="#0091C8"/>
<path d="M17.6061 22.3411L26.4185 28.9945L30.8668 10.0059L8.13281 18.9484L15.0505 21.2397L27.6755 12.7712L17.6061 22.3411Z" fill="white"/>
<path d="M15.0508 21.2398L16.9454 28.0575L17.6063 22.3413L27.6757 12.7714L15.0508 21.2398Z" fill="#D2D2D7"/>
<path d="M20.4703 24.5036L16.9453 28.0574L17.6063 22.3412L20.4703 24.5036Z" fill="#B9B9BE"/>
</g>
<defs>
<clipPath id="clip0_1_1314">
<rect width="39" height="39" fill="white"/>
</clipPath>
</defs>
</svg>
