<svg width="39" height="39" viewBox="0 0 39 39" fill="none" xmlns="http://www.w3.org/2000/svg">
<path d="M19.5 39C30.2696 39 39 30.2696 39 19.5C39 8.73045 30.2696 0 19.5 0C8.73045 0 0 8.73045 0 19.5C0 30.2696 8.73045 39 19.5 39Z" fill="#6F3FAA"/>
<path d="M27.9597 10.6978C23.2133 9.55145 18.4584 8.21052 13.5909 9.91418C10.4393 11.096 10.4393 14.5102 10.5707 17.3991C10.5707 18.1869 9.6515 19.2375 10.0454 20.1566C10.8332 22.7829 11.4898 25.4091 14.2474 26.7223C14.6414 26.9849 14.2474 27.5101 14.51 27.9041C14.3787 27.9041 14.1161 28.0354 14.1161 28.1667C14.1161 28.7961 14.3985 29.7589 14.2109 30.3795L22.5903 38.7554C31.2046 37.3835 37.9372 30.3713 38.8845 21.6227L27.9597 10.6978Z" fill="#512D84"/>
<path d="M29.8155 13.7051L29.8091 13.6794C29.2881 11.573 26.9391 9.31281 24.7819 8.8426L24.7576 8.83757C21.2685 8.17198 17.7307 8.17198 14.2423 8.83757L14.2172 8.8426C12.0608 9.31281 9.71174 11.5731 9.19004 13.6794L9.18425 13.7051C8.54014 16.6466 8.54014 19.6298 9.18425 22.5714L9.19004 22.5971C9.68958 24.6135 11.8636 26.77 13.9403 27.363V29.7142C13.9403 30.5653 14.9774 30.9832 15.5671 30.3691L17.9494 27.8928C18.4661 27.9217 18.9831 27.9378 19.4999 27.9378C21.2562 27.9378 23.0133 27.7717 24.7575 27.439L24.7818 27.4339C26.939 26.9637 29.288 24.7034 29.809 22.5972L29.8154 22.5714C30.4595 19.6298 30.4595 16.6468 29.8155 13.7051ZM27.9302 22.1449C27.5823 23.5191 25.7988 25.2275 24.3817 25.5431C22.5265 25.896 20.6566 26.0467 18.7885 25.995C18.7514 25.9939 18.7156 26.0084 18.6898 26.035C18.4247 26.3071 16.9504 27.8207 16.9504 27.8207L15.1004 29.7195C14.9651 29.8606 14.7274 29.7645 14.7274 29.5699V25.6748C14.7274 25.6104 14.6815 25.5558 14.6183 25.5433C14.6179 25.5431 14.6176 25.5431 14.6172 25.5431C13.2001 25.2274 11.4172 23.519 11.0687 22.1448C10.489 19.4859 10.489 16.7905 11.0687 14.1317C11.4172 12.7575 13.2001 11.0491 14.6172 10.7334C17.8573 10.1172 21.1424 10.1172 24.3818 10.7334C25.7996 11.0491 27.5824 12.7575 27.9302 14.1317C28.5106 16.7906 28.5106 19.486 27.9302 22.1449Z" fill="white"/>
<path d="M22.5824 23.9429C22.3645 23.8767 22.1569 23.8323 21.964 23.7523C19.9659 22.9234 18.1271 21.8539 16.6707 20.2146C15.8424 19.2824 15.1941 18.23 14.6461 17.1162C14.3862 16.588 14.1672 16.0392 13.9439 15.4938C13.7404 14.9965 14.0402 14.4828 14.3559 14.1081C14.6521 13.7564 15.0333 13.4874 15.4462 13.2889C15.7684 13.1341 16.0862 13.2234 16.3216 13.4965C16.8302 14.087 17.2976 14.7076 17.6759 15.3921C17.9086 15.8131 17.8448 16.3277 17.423 16.6142C17.3205 16.6838 17.2271 16.7656 17.1317 16.8442C17.0479 16.9132 16.9691 16.9828 16.9117 17.0761C16.8068 17.2468 16.8018 17.4483 16.8692 17.6339C17.3893 19.063 18.2658 20.1743 19.7043 20.773C19.9345 20.8687 20.1656 20.9801 20.4308 20.9493C20.8749 20.8974 21.0187 20.4102 21.3299 20.1557C21.6341 19.907 22.0229 19.9038 22.3505 20.1111C22.6783 20.3186 22.9959 20.5412 23.3117 20.7663C23.6217 20.9872 23.9303 21.2031 24.2162 21.455C24.4912 21.6972 24.5858 22.0148 24.431 22.3433C24.1476 22.9452 23.7351 23.4457 23.1403 23.7653C22.9724 23.8553 22.7717 23.8845 22.5824 23.9429C22.3645 23.8767 22.7717 23.8845 22.5824 23.9429Z" fill="white"/>
<path d="M19.5052 12.6008C22.1185 12.674 24.2651 14.4084 24.7251 16.9922C24.8035 17.4324 24.8314 17.8825 24.8663 18.3294C24.881 18.5173 24.7745 18.6958 24.5717 18.6983C24.3623 18.7008 24.268 18.5255 24.2543 18.3377C24.2274 17.9659 24.2088 17.5922 24.1575 17.2236C23.887 15.2767 22.3346 13.666 20.3968 13.3204C20.1052 13.2684 19.8069 13.2548 19.5114 13.2238C19.3247 13.2042 19.0802 13.1929 19.0388 12.9608C19.0042 12.7661 19.1684 12.6112 19.3537 12.6012C19.4039 12.5983 19.4546 12.6006 19.5052 12.6008C22.1187 12.674 19.4546 12.6006 19.5052 12.6008Z" fill="white"/>
<path d="M23.4769 17.7494C23.4726 17.7821 23.4704 17.8588 23.4512 17.931C23.3819 18.1933 22.9839 18.2262 22.8925 17.9615C22.8653 17.8829 22.8612 17.7935 22.8611 17.709C22.8602 17.1555 22.7399 16.6025 22.4607 16.1209C22.1738 15.6258 21.7353 15.2098 21.2213 14.9579C20.9103 14.8057 20.5742 14.7111 20.2334 14.6548C20.0845 14.6301 19.9339 14.6152 19.7843 14.5944C19.6029 14.5692 19.506 14.4536 19.5147 14.2749C19.5227 14.1075 19.6451 13.9869 19.8276 13.9973C20.4273 14.0313 21.0067 14.1611 21.54 14.4434C22.6242 15.0177 23.2436 15.9239 23.4244 17.1342C23.4326 17.1892 23.4457 17.2434 23.4499 17.2984C23.4601 17.4341 23.4666 17.5701 23.4769 17.7494C23.4726 17.7819 23.4666 17.5701 23.4769 17.7494Z" fill="white"/>
<path d="M21.8513 17.6861C21.6327 17.6901 21.5157 17.569 21.4931 17.3687C21.4775 17.229 21.465 17.0873 21.4316 16.9512C21.366 16.6833 21.2236 16.4352 20.9983 16.271C20.892 16.1936 20.7714 16.1371 20.6452 16.1006C20.4848 16.0542 20.3182 16.067 20.1583 16.0278C19.9845 15.9852 19.8884 15.8445 19.9157 15.6815C19.9406 15.5331 20.0848 15.4174 20.247 15.4292C21.2602 15.5023 21.9844 16.0261 22.0878 17.219C22.0952 17.3032 22.1037 17.392 22.085 17.4727C22.0529 17.6104 21.9508 17.6794 21.8513 17.6861C21.6327 17.69 21.9508 17.6794 21.8513 17.6861Z" fill="white"/>
<path d="M29.8158 13.7051L29.8094 13.6794C29.5174 12.4986 28.6507 11.2697 27.5655 10.3346L26.0986 11.6347C26.9709 12.3298 27.7183 13.2927 27.9306 14.1316C28.5111 16.7905 28.5111 19.4859 27.9306 22.1449C27.5828 23.5191 25.7992 25.2275 24.3822 25.5431C22.527 25.896 20.6571 26.0467 18.789 25.995C18.7519 25.9939 18.7161 26.0084 18.6903 26.0351C18.4251 26.3072 16.9509 27.8207 16.9509 27.8207L15.1009 29.7195C14.9656 29.8606 14.7279 29.7647 14.7279 29.5699V25.6748C14.7279 25.6104 14.682 25.5558 14.6188 25.5433C14.6184 25.5433 14.6181 25.5431 14.6177 25.5431C13.8123 25.3638 12.8892 24.7344 12.1781 23.9724L10.7285 25.2569C11.6338 26.2417 12.8015 27.0379 13.9405 27.3631V29.7144C13.9405 30.5655 14.9776 30.9834 15.5673 30.3692L17.9496 27.893C18.4664 27.9218 18.9832 27.938 19.5002 27.938C21.2565 27.938 23.0136 27.7719 24.7578 27.4391L24.7821 27.4342C26.9393 26.964 29.2882 24.7038 29.8093 22.5974L29.8157 22.5717C30.4598 19.6298 30.4598 16.6468 29.8158 13.7051Z" fill="#D1D1D1"/>
<path d="M22.5826 23.9429C22.772 23.8845 22.3648 23.8767 22.5826 23.9429V23.9429Z" fill="white"/>
<path d="M24.2166 21.4548C23.9307 21.2031 23.622 20.987 23.3121 20.7661C22.9963 20.541 22.6787 20.3184 22.3509 20.1109C22.0233 19.9036 21.6346 19.9069 21.3304 20.1556C21.0191 20.4101 20.8754 20.8973 20.4312 20.9491C20.1661 20.98 19.9349 20.8685 19.7047 20.7728C18.8197 20.4046 18.1481 19.8415 17.6406 19.1306L16.562 20.0866C16.5987 20.129 16.6336 20.1726 16.6709 20.2145C18.1274 21.8538 19.9663 22.9232 21.9642 23.7522C22.157 23.8322 22.3647 23.8767 22.5826 23.9427C22.3647 23.8765 22.7721 23.8844 22.5826 23.9427C22.7721 23.8844 22.9726 23.8551 23.1407 23.7651C23.7357 23.4454 24.148 22.9448 24.4313 22.3431C24.5863 22.0146 24.4916 21.697 24.2166 21.4548Z" fill="#D1D1D1"/>
<path d="M19.5122 12.6015C19.5099 12.6015 19.5078 12.6012 19.5056 12.6012C19.5035 12.6009 19.5062 12.6012 19.5122 12.6015Z" fill="white"/>
<path d="M19.5063 12.6008C19.5086 12.6008 19.5107 12.6011 19.5129 12.6011C19.6579 12.6062 22.0168 12.6712 19.5063 12.6008Z" fill="white"/>
<path d="M23.2543 14.1555L22.7944 14.5631C23.5171 15.2662 24.0154 16.198 24.1578 17.2234C24.209 17.5922 24.2278 17.9657 24.2547 18.3376C24.2684 18.5255 24.3625 18.7008 24.5721 18.6983C24.775 18.6958 24.8814 18.5174 24.8667 18.3294C24.8317 17.8825 24.8039 17.4324 24.7255 16.9922C24.5242 15.8612 23.9996 14.8929 23.2543 14.1555Z" fill="#D1D1D1"/>
<path d="M23.4246 17.134C23.2929 16.2521 22.9271 15.5324 22.3194 14.9841L21.8608 15.3905C22.098 15.601 22.3031 15.8481 22.4611 16.1208C22.7402 16.6024 22.8605 17.1554 22.8614 17.7089C22.8616 17.7934 22.8656 17.8829 22.8928 17.9615C22.9844 18.2264 23.3822 18.1936 23.4515 17.9311C23.4707 17.8587 23.4729 17.782 23.4773 17.7495C23.4729 17.7822 23.4668 17.5702 23.4773 17.7495C23.4668 17.5702 23.4604 17.4342 23.4501 17.2983C23.4461 17.2431 23.4329 17.1889 23.4246 17.134Z" fill="#D1D1D1"/>
<path d="M23.4769 17.7495C23.4666 17.5701 23.4726 17.782 23.4769 17.7495V17.7495Z" fill="white"/>
<path d="M21.8512 17.6862C21.8546 17.686 21.8579 17.6842 21.8612 17.6838C21.852 17.6838 21.8378 17.6841 21.8232 17.6846C21.8327 17.6848 21.8413 17.6863 21.8512 17.6862Z" fill="white"/>
<path d="M21.8514 17.6862C21.8416 17.6863 21.8329 17.6849 21.8235 17.6846C21.7762 17.6859 21.7273 17.6884 21.8514 17.6862Z" fill="white"/>
<path d="M21.8615 17.6838C21.8581 17.6842 21.8548 17.686 21.8516 17.6862C21.8771 17.6844 21.8749 17.6838 21.8615 17.6838Z" fill="white"/>
<path d="M21.3901 15.8076L20.9233 16.2214C20.9491 16.237 20.9743 16.2533 20.9987 16.271C21.2241 16.4352 21.3664 16.6834 21.4321 16.9513C21.4655 17.0873 21.4778 17.2288 21.4936 17.3687C21.5151 17.5601 21.6238 17.6778 21.8238 17.6846C21.8384 17.6843 21.8527 17.684 21.8618 17.6839C21.9581 17.6732 22.0546 17.6057 22.0854 17.4726C22.1041 17.3921 22.0956 17.303 22.0882 17.2189C22.0301 16.552 21.778 16.0944 21.3901 15.8076Z" fill="#D1D1D1"/>
</svg>
